<svg width="236" height="236" viewBox="0 0 236 236" fill="none" xmlns="http://www.w3.org/2000/svg">
<circle cx="118" cy="118" r="118" fill="white"/>
<path d="M118 160.917C120.276 160.917 122.46 160.012 124.069 158.403C125.679 156.793 126.583 154.61 126.583 152.333C126.583 150.057 125.679 147.874 124.069 146.264C122.46 144.654 120.276 143.75 118 143.75C115.724 143.75 113.54 144.654 111.931 146.264C110.321 147.874 109.417 150.057 109.417 152.333C109.417 154.61 110.321 156.793 111.931 158.403C113.54 160.012 115.724 160.917 118 160.917V160.917Z" fill="#54ADFF"/>
<path d="M195.25 78.1132V157.887C195.25 158.806 195.005 159.709 194.538 160.501C194.072 161.294 193.402 161.947 192.598 162.393L120.498 202.443C119.733 202.867 118.874 203.089 118 203.089C117.126 203.089 116.267 202.867 115.502 202.443L43.4023 162.393C42.5981 161.947 41.9281 161.294 41.4617 160.501C40.9953 159.709 40.7496 158.806 40.75 157.887V78.1132C40.7511 77.1952 40.9975 76.2941 41.4639 75.5033C41.9302 74.7126 42.5994 74.0608 43.4023 73.6156L115.502 33.5571C116.267 33.1333 117.126 32.9109 118 32.9109C118.874 32.9109 119.733 33.1333 120.498 33.5571L192.598 73.6156C193.401 74.0608 194.07 74.7126 194.536 75.5033C195.002 76.2941 195.249 77.1952 195.25 78.1132V78.1132Z" stroke="#54ADFF" stroke-width="6" stroke-linecap="round" stroke-linejoin="round"/>
<path d="M190.958 158.531L120.498 119.391C119.733 118.967 118.874 118.744 118 118.744C117.126 118.744 116.266 118.967 115.502 119.391L45.0416 158.531M45.282 77.6068L115.494 116.61C116.259 117.035 117.12 117.258 117.996 117.258C118.871 117.258 119.732 117.035 120.498 116.61L190.958 77.4695M118 40.75V118M118 182.375V203.833" stroke="#54ADFF" stroke-width="6" stroke-linecap="round" stroke-linejoin="round"/>
</svg>
